<svg width="168" height="293" viewBox="0 0 168 293" fill="none" xmlns="http://www.w3.org/2000/svg">
    <g clip-path="url(#clip0_243_393)">
        <path
            d="M132.634 222.627C131.531 219.983 131.409 217.031 132.292 214.305C133.175 211.579 135.004 209.258 137.448 207.762C138.262 207.267 137.518 205.985 136.7 206.482C133.896 208.157 131.804 210.801 130.819 213.914C129.833 217.027 130.024 220.393 131.354 223.376C131.728 224.25 133.005 223.496 132.634 222.627H132.634Z"
            fill="#E3E3E3" />
        <path
            d="M133.058 224.621C131.059 221.079 131.529 216.841 132.248 213.01C132.999 209.012 133.983 204.952 133.132 200.886C132.746 198.911 131.832 197.079 130.487 195.582C129.839 194.879 128.793 195.929 129.439 196.63C131.953 199.361 132.245 203.323 131.837 206.841C131.356 210.991 129.992 215.035 130.162 219.251C130.206 221.39 130.76 223.488 131.778 225.369C131.881 225.532 132.043 225.648 132.23 225.694C132.416 225.739 132.614 225.711 132.78 225.614C132.946 225.517 133.068 225.359 133.12 225.174C133.171 224.989 133.149 224.79 133.058 224.621L133.058 224.621Z"
            fill="#E3E3E3" />
        <path
            d="M143.788 235.932H118.588C117.999 235.931 117.434 235.697 117.017 235.28C116.6 234.863 116.365 234.298 116.365 233.708V226.306C116.367 224.404 117.124 222.581 118.469 221.236C119.814 219.891 121.637 219.134 123.539 219.132H127.235C127.432 219.132 127.62 219.054 127.759 218.915C127.898 218.776 127.976 218.588 127.977 218.391V214.933C127.977 214.605 128.107 214.291 128.339 214.059C128.57 213.828 128.884 213.698 129.212 213.697H133.165C133.492 213.698 133.806 213.828 134.038 214.059C134.269 214.291 134.4 214.605 134.4 214.933V218.391C134.4 218.588 134.478 218.776 134.617 218.915C134.756 219.054 134.945 219.132 135.141 219.132H138.837C140.739 219.134 142.563 219.891 143.908 221.236C145.253 222.581 146.01 224.404 146.012 226.306V233.708C146.011 234.298 145.777 234.863 145.36 235.28C144.943 235.697 144.378 235.931 143.788 235.932Z"
            fill="#CCCCCC" />
        <path
            d="M131.576 191.482C132.106 194.298 131.449 196.786 130.108 197.038C128.768 197.291 127.25 195.213 126.72 192.397C126.189 189.582 127.821 184.899 127.821 184.899C127.821 184.899 131.045 188.667 131.576 191.482Z"
            fill="#FF4E16" />
        <path
            d="M141.751 204.582C140.071 206.903 137.813 208.136 136.708 207.336C135.602 206.536 136.068 204.006 137.749 201.685C139.429 199.364 143.951 197.33 143.951 197.33C143.951 197.33 143.431 202.261 141.751 204.582Z"
            fill="#FF4E16" />
        <path
            d="M86.187 44.7522C85.0835 42.1076 84.9623 39.1556 85.8452 36.4294C86.7281 33.7033 88.557 31.3828 91.0013 29.8871C91.8153 29.3922 91.0713 28.1098 90.2532 28.6072C87.4494 30.2813 85.3569 32.9252 84.3716 36.0385C83.3864 39.1517 83.5769 42.5181 84.9071 45.5003C85.2811 46.3747 86.5584 45.6204 86.1871 44.7522H86.187Z"
            fill="#E3E3E3" />
        <path
            d="M86.6111 46.7459C84.6117 43.204 85.0822 38.9653 85.8014 35.1351C86.5521 31.1368 87.5362 27.0771 86.6847 23.0105C86.2986 21.0361 85.3845 19.2033 84.0397 17.707C83.3921 17.0037 82.3459 18.054 82.9915 18.7551C85.506 21.486 85.7975 25.4476 85.3897 28.9659C84.9087 33.1156 83.5454 37.1593 83.7146 41.3761C83.7588 43.515 84.313 45.6125 85.3311 47.4941C85.4338 47.6567 85.5956 47.7731 85.7825 47.8187C85.9693 47.8642 86.1666 47.8355 86.3326 47.7384C86.4987 47.6414 86.6205 47.4836 86.6725 47.2985C86.7244 47.1133 86.7024 46.9152 86.6111 46.7459L86.6111 46.7459Z"
            fill="#E3E3E3" />
        <path
            d="M97.3413 58.0564H72.1413C71.5517 58.0558 70.9866 57.8213 70.5697 57.4045C70.1529 56.9876 69.9184 56.4225 69.9177 55.833V48.4312C69.9199 46.5291 70.6765 44.7056 72.0215 43.3607C73.3665 42.0158 75.19 41.2593 77.0921 41.2571H80.7883C80.9848 41.2569 81.1732 41.1787 81.3122 41.0398C81.4511 40.9008 81.5293 40.7124 81.5295 40.516V37.0573C81.5299 36.7298 81.6601 36.4158 81.8917 36.1842C82.1233 35.9527 82.4373 35.8224 82.7648 35.822H86.7177C87.0452 35.8224 87.3592 35.9527 87.5908 36.1842C87.8224 36.4158 87.9526 36.7298 87.953 37.0573V40.516C87.9532 40.7124 88.0314 40.9008 88.1703 41.0398C88.3093 41.1787 88.4977 41.2569 88.6942 41.2571H92.3904C94.2925 41.2593 96.116 42.0158 97.461 43.3607C98.806 44.7056 99.5626 46.5291 99.5648 48.4312V55.833C99.5641 56.4225 99.3297 56.9876 98.9128 57.4045C98.496 57.8213 97.9308 58.0558 97.3413 58.0564Z"
            fill="#CCCCCC" />
        <path
            d="M85.1286 13.6073C85.6592 16.423 85.0023 18.9104 83.6614 19.163C82.3205 19.4157 80.8034 17.3379 80.2729 14.5221C79.7423 11.7064 81.3741 7.02417 81.3741 7.02417C81.3741 7.02417 84.598 10.7915 85.1286 13.6073Z"
            fill="#FF4E16" />
        <path
            d="M95.3041 26.7069C93.6239 29.0279 91.3658 30.2608 90.2605 29.4608C89.1552 28.6607 89.6213 26.1306 91.3015 23.8096C92.9817 21.4887 97.504 19.4548 97.504 19.4548C97.504 19.4548 96.9843 24.3859 95.3041 26.7069Z"
            fill="#FF4E16" />
        <path d="M36.0706 134.395H15.8118V141.806H36.0706V134.395Z" fill="#FF4E16" />
        <path d="M36.0706 158.605H15.8118V166.017H36.0706V158.605Z" fill="#FF4E16" />
        <path
            d="M159.6 293H8.4C6.17295 292.997 4.03783 292.112 2.46306 290.537C0.888299 288.962 0.00249665 286.827 0 284.6V8.39966C0.00249665 6.1727 0.888299 4.03767 2.46306 2.46296C4.03783 0.888263 6.17295 0.00249655 8.4 0H159.6C161.827 0.00250699 163.962 0.888273 165.537 2.46297C167.112 4.03767 167.997 6.1727 168 8.39966V284.6C167.997 286.827 167.112 288.962 165.537 290.537C163.962 292.112 161.827 292.997 159.6 293ZM8.4 0.988196C6.43496 0.990419 4.55104 1.77198 3.16155 3.16142C1.77206 4.55085 0.990459 6.4347 0.988235 8.39966V284.6C0.990459 286.565 1.77206 288.449 3.16155 289.839C4.55104 291.228 6.43496 292.01 8.4 292.012H159.6C161.565 292.01 163.449 291.228 164.838 289.839C166.228 288.449 167.01 286.565 167.012 284.6V8.39966C167.01 6.4347 166.228 4.55085 164.838 3.16142C163.449 1.77198 161.565 0.990419 159.6 0.988196H8.4Z"
            fill="#E3E3E3" />
        <path d="M167.506 57.0449H0.494141V58.0331H167.506V57.0449Z" fill="#E3E3E3" />
        <path d="M167.506 116.352H0.494141V117.34H167.506V116.352Z" fill="#E3E3E3" />
        <path d="M167.506 175.659H0.494141V176.648H167.506V175.659Z" fill="#E3E3E3" />
        <path d="M167.506 234.967H0.494141V235.955H167.506V234.967Z" fill="#E3E3E3" />
        <path
            d="M34.5882 176.887H17.7882C17.1332 176.886 16.5052 176.626 16.0421 176.163C15.5789 175.699 15.3184 175.072 15.3176 174.417V126.489C15.3184 125.834 15.5789 125.206 16.0421 124.743C16.5052 124.28 17.1332 124.019 17.7882 124.019H34.5882C35.2432 124.019 35.8712 124.28 36.3344 124.743C36.7975 125.206 37.058 125.834 37.0588 126.489V174.417C37.058 175.072 36.7975 175.699 36.3344 176.163C35.8712 176.626 35.2432 176.886 34.5882 176.887ZM17.7882 125.007C17.3952 125.007 17.0184 125.164 16.7405 125.441C16.4626 125.719 16.3063 126.096 16.3059 126.489V174.417C16.3063 174.81 16.4626 175.186 16.7405 175.464C17.0184 175.742 17.3952 175.898 17.7882 175.899H34.5882C34.9812 175.898 35.358 175.742 35.6359 175.464C35.9138 175.186 36.0701 174.81 36.0706 174.417V126.489C36.0701 126.096 35.9138 125.719 35.6359 125.441C35.358 125.164 34.9812 125.007 34.5882 125.007H17.7882Z"
            fill="#E3E3E3" />
        <path d="M67.2 134.395H46.9412V141.806H67.2V134.395Z" fill="#FF4E16" />
        <path d="M67.2 158.605H46.9412V166.017H67.2V158.605Z" fill="#FF4E16" />
        <path
            d="M65.7176 176.887H48.9176C48.2626 176.886 47.6346 176.626 47.1715 176.163C46.7083 175.699 46.4478 175.072 46.447 174.417V126.489C46.4478 125.834 46.7083 125.206 47.1715 124.743C47.6346 124.28 48.2626 124.019 48.9176 124.019H65.7176C66.3726 124.019 67.0006 124.28 67.4637 124.743C67.9269 125.206 68.1874 125.834 68.1882 126.489V174.417C68.1874 175.072 67.9269 175.699 67.4637 176.163C67.0006 176.626 66.3726 176.886 65.7176 176.887ZM48.9176 125.007C48.5246 125.007 48.1478 125.164 47.8699 125.441C47.592 125.719 47.4357 126.096 47.4353 126.489V174.417C47.4357 174.81 47.592 175.186 47.8699 175.464C48.1478 175.742 48.5246 175.898 48.9176 175.899H65.7176C66.1106 175.898 66.4874 175.742 66.7653 175.464C67.0432 175.186 67.1995 174.81 67.2 174.417V126.489C67.1995 126.096 67.0432 125.719 66.7653 125.441C66.4874 125.164 66.1106 125.007 65.7176 125.007H48.9176Z"
            fill="#E3E3E3" />
        <path d="M116.612 74.6089H96.353V82.0204H116.612V74.6089Z" fill="#FF4E16" />
        <path d="M116.612 98.8196H96.353V106.231H116.612V98.8196Z" fill="#FF4E16" />
        <path
            d="M115.129 117.101H98.3295C97.6745 117.1 97.0465 116.84 96.5833 116.377C96.1202 115.914 95.8596 115.286 95.8589 114.631V66.7032C95.8596 66.0482 96.1202 65.4202 96.5833 64.9571C97.0465 64.4939 97.6745 64.2334 98.3295 64.2327H115.129C115.784 64.2334 116.412 64.4939 116.876 64.9571C117.339 65.4202 117.599 66.0482 117.6 66.7032V114.631C117.599 115.286 117.339 115.914 116.876 116.377C116.412 116.84 115.784 117.1 115.129 117.101ZM98.3295 65.2209C97.9365 65.2213 97.5597 65.3776 97.2818 65.6555C97.0039 65.9334 96.8476 66.3102 96.8471 66.7032V114.631C96.8476 115.024 97.0039 115.4 97.2818 115.678C97.5597 115.956 97.9365 116.112 98.3295 116.113H115.129C115.522 116.112 115.899 115.956 116.177 115.678C116.455 115.4 116.611 115.024 116.612 114.631V66.7032C116.611 66.3102 116.455 65.9334 116.177 65.6555C115.899 65.3776 115.522 65.2213 115.129 65.2209H98.3295Z"
            fill="#E3E3E3" />
        <path d="M147.741 74.6089H127.482V82.0204H147.741V74.6089Z" fill="#FF4E16" />
        <path d="M147.741 98.8196H127.482V106.231H147.741V98.8196Z" fill="#FF4E16" />
        <path
            d="M146.259 117.101H129.459C128.804 117.1 128.176 116.84 127.713 116.377C127.25 115.914 126.989 115.286 126.988 114.631V66.7032C126.989 66.0482 127.25 65.4202 127.713 64.9571C128.176 64.4939 128.804 64.2334 129.459 64.2327H146.259C146.914 64.2334 147.542 64.4939 148.005 64.9571C148.468 65.4202 148.729 66.0482 148.729 66.7032V114.631C148.729 115.286 148.468 115.914 148.005 116.377C147.542 116.84 146.914 117.1 146.259 117.101ZM129.459 65.2209C129.066 65.2213 128.689 65.3776 128.411 65.6555C128.133 65.9334 127.977 66.3102 127.977 66.7032V114.631C127.977 115.024 128.133 115.4 128.411 115.678C128.689 115.956 129.066 116.112 129.459 116.113H146.259C146.652 116.112 147.029 115.956 147.307 115.678C147.584 115.4 147.741 115.024 147.741 114.631V66.7032C147.741 66.3102 147.584 65.9334 147.307 65.6555C147.029 65.3776 146.652 65.2213 146.259 65.2209H129.459Z"
            fill="#E3E3E3" />
        <path d="M92.0491 129.968L73.085 137.094L75.6921 144.032L94.6562 136.906L92.0491 129.968Z" fill="#FF4E16" />
        <path d="M100.566 152.632L81.6016 159.758L84.2087 166.696L103.173 159.57L100.566 152.632Z" fill="#FF4E16" />
        <path
            d="M89.0124 176.335C88.51 176.334 88.0197 176.18 87.6068 175.894C87.194 175.607 86.878 175.202 86.701 174.732L69.8416 129.868C69.612 129.254 69.635 128.575 69.9056 127.978C70.1762 127.382 70.6723 126.917 71.2851 126.686L87.0116 120.777C87.3153 120.663 87.6386 120.609 87.9628 120.62C88.2871 120.631 88.6061 120.706 88.9016 120.84C89.197 120.974 89.4632 121.165 89.6848 121.402C89.9065 121.639 90.0793 121.917 90.1933 122.221L107.053 167.085C107.282 167.698 107.259 168.378 106.989 168.974C106.718 169.571 106.222 170.035 105.609 170.267H105.609L89.8827 176.176C89.6046 176.281 89.3097 176.335 89.0124 176.335ZM87.8815 121.606C87.7031 121.607 87.5262 121.639 87.3592 121.702L71.6329 127.611C71.2651 127.75 70.9674 128.029 70.8051 128.386C70.6427 128.744 70.6289 129.152 70.7667 129.52L87.6261 174.385C87.6945 174.567 87.7982 174.734 87.9312 174.876C88.0642 175.018 88.2239 175.133 88.4012 175.213C88.5784 175.293 88.7698 175.338 88.9644 175.345C89.159 175.351 89.3529 175.319 89.5351 175.251L105.261 169.342C105.629 169.203 105.927 168.924 106.089 168.566C106.252 168.208 106.265 167.801 106.128 167.432L89.2683 122.568C89.162 122.286 88.9725 122.043 88.7248 121.871C88.4771 121.699 88.1829 121.607 87.8815 121.606Z"
            fill="#E3E3E3" />
        <path d="M23.8609 71.1708L4.89673 78.2966L7.50385 85.2344L26.468 78.1086L23.8609 71.1708Z" fill="#FF4E16" />
        <path d="M32.3775 93.8344L13.4133 100.96L16.0205 107.898L34.9846 100.772L32.3775 93.8344Z" fill="#FF4E16" />
        <path
            d="M20.8242 117.537C20.3217 117.536 19.8315 117.382 19.4186 117.096C19.0057 116.81 18.6898 116.405 18.5128 115.934L1.65334 71.0699C1.42371 70.4565 1.44674 69.7772 1.71736 69.1807C1.98798 68.5843 2.48409 68.1196 3.09691 67.8884L18.8234 61.9793C19.1271 61.8651 19.4503 61.8119 19.7746 61.8227C20.0989 61.8334 20.4179 61.908 20.7133 62.042C21.0088 62.1761 21.275 62.3671 21.4966 62.604C21.7182 62.8409 21.891 63.1192 22.0051 63.423L38.8645 108.287C39.0942 108.901 39.0711 109.58 38.8005 110.177C38.5299 110.773 38.0338 111.238 37.421 111.469H37.4209L21.6945 117.378C21.4163 117.483 21.1215 117.537 20.8242 117.537ZM19.6933 62.8087C19.5149 62.809 19.3379 62.8413 19.171 62.9043L3.44464 68.8134C3.07691 68.9521 2.77921 69.231 2.61682 69.5889C2.45444 69.9468 2.44063 70.3544 2.57842 70.7225L19.4378 115.587C19.5063 115.769 19.61 115.936 19.743 116.078C19.876 116.22 20.0357 116.335 20.2129 116.415C20.3902 116.496 20.5816 116.541 20.7762 116.547C20.9707 116.554 21.1647 116.522 21.3469 116.453L37.0732 110.544C37.441 110.405 37.7387 110.126 37.9011 109.768C38.0634 109.411 38.0772 109.003 37.9394 108.635L21.08 63.7704C20.9738 63.4883 20.7842 63.2452 20.5365 63.0735C20.2888 62.9017 19.9947 62.8094 19.6933 62.8087Z"
            fill="#E3E3E3" />
    </g>
    <defs>
        <clipPath id="clip0_243_393">
            <rect width="168" height="293" fill="white" />
        </clipPath>
    </defs>
</svg>