<svg width="168" height="264" viewBox="0 0 168 264" fill="none" xmlns="http://www.w3.org/2000/svg">
    <path
        d="M99.2898 51.0348C109.92 51.0348 118.537 42.4425 118.537 31.8432C118.537 21.244 109.92 12.6516 99.2898 12.6516C88.6598 12.6516 80.0425 21.244 80.0425 31.8432C80.0425 42.4425 88.6598 51.0348 99.2898 51.0348Z"
        fill="#C7B86D" />
    <path
        d="M13.7821 119.426C14.6913 119.777 15.6667 119.925 16.6396 119.86C17.6125 119.795 18.5592 119.517 19.413 119.048C20.2669 118.578 21.0071 117.928 21.5815 117.142C22.1559 116.356 22.5505 115.454 22.7376 114.5L75.6598 81.2069L66.0273 70.3933L17.0127 106.542C15.3842 106.335 13.7361 106.731 12.3806 107.654C11.0251 108.578 10.0565 109.965 9.6583 111.553C9.26008 113.141 9.45991 114.82 10.2199 116.271C10.98 117.722 12.2474 118.844 13.7821 119.426Z"
        fill="#FFB8B8" />
    <path
        d="M64.611 90.0583C64.1425 90.0591 63.6814 89.9426 63.2699 89.7193C62.8584 89.4961 62.5097 89.1734 62.2558 88.7809L56.1274 79.2848C55.7406 78.6854 55.599 77.9609 55.7316 77.2606C55.8642 76.5602 56.261 75.9371 56.8403 75.5195L77.348 60.7401C78.3431 60.0229 79.4723 59.512 80.6689 59.2376C81.8655 58.9632 83.1052 58.9308 84.3146 59.1425C85.5239 59.3542 86.6784 59.8056 87.7098 60.4699C88.7411 61.1343 89.6283 61.9982 90.3189 63.0105C91.0096 64.0227 91.4896 65.1628 91.7305 66.3633C91.9715 67.5638 91.9685 68.8003 91.7218 69.9996C91.4752 71.1989 90.9897 72.3367 90.2943 73.3457C89.5988 74.3547 88.7075 75.2144 87.673 75.8738L66.1103 89.6207C65.6629 89.9068 65.1425 90.0587 64.611 90.0583Z"
        fill="#E3E3E3" />
    <path d="M73.7677 255.859L66.1563 255.858L62.5347 226.583L73.7695 226.584L73.7677 255.859Z" fill="#FFB8B8" />
    <path
        d="M60.7188 253.69H75.3988V262.906H51.4758C51.4758 261.696 51.7149 260.497 52.1794 259.379C52.6439 258.261 53.3247 257.245 54.183 256.389C55.0413 255.534 56.0602 254.855 57.1817 254.391C58.3031 253.928 59.505 253.69 60.7188 253.69Z"
        fill="#2F2E41" />
    <path d="M109.303 250.184L101.974 252.236L90.5515 225.027L101.368 221.999L109.303 250.184Z" fill="#FFB8B8" />
    <path
        d="M96.1522 251.613L110.286 247.657L112.784 256.53L89.7513 262.977C89.4232 261.812 89.3286 260.594 89.4727 259.392C89.6168 258.19 89.9969 257.029 90.5913 255.973C91.1857 254.918 91.9827 253.99 92.9368 253.242C93.891 252.494 94.9835 251.94 96.1522 251.613Z"
        fill="#2F2E41" />
    <path
        d="M129.812 205.257L100.261 170.482L118.193 148.787C118.456 148.469 118.786 148.213 119.16 148.038C119.535 147.863 119.943 147.772 120.357 147.773C120.77 147.775 121.178 147.867 121.551 148.045C121.925 148.222 122.254 148.48 122.515 148.8L149.648 182.004L129.812 205.257Z"
        fill="#FF4E16" />
    <path
        d="M101.453 170.742C101.889 169.96 102.429 169.241 103.059 168.604L120.175 151.302C120.846 150.62 121.749 150.216 122.705 150.169C124.661 150.077 127.869 150.274 128.763 152.413L105.655 171.265L101.453 170.742Z"
        fill="#F2F2F2" />
    <path
        d="M130.839 212.615C129.521 212.576 128.24 212.172 127.14 211.447L127.058 211.363L99.9932 170.089L104.484 169.657L128.554 150.937C128.858 150.7 129.207 150.529 129.581 150.434C129.954 150.339 130.343 150.322 130.723 150.384C131.104 150.446 131.467 150.586 131.791 150.795C132.114 151.003 132.391 151.277 132.603 151.597L158.914 191.304C159.318 191.917 159.463 192.664 159.32 193.384C159.176 194.103 158.754 194.737 158.145 195.149L132.685 212.267C132.098 212.5 131.471 212.618 130.839 212.615Z"
        fill="#FF4E16" />
    <path
        d="M121.267 184.382C121.012 184.382 120.761 184.32 120.537 184.201C120.312 184.082 120.119 183.91 119.977 183.699L116.868 179.094C116.638 178.753 116.554 178.336 116.633 177.933C116.712 177.53 116.948 177.175 117.289 176.945L133.24 166.238C133.582 166.009 134 165.925 134.404 166.004C134.808 166.082 135.164 166.317 135.394 166.657L138.504 171.262C138.733 171.603 138.818 172.021 138.739 172.423C138.66 172.826 138.424 173.181 138.083 173.411L122.132 184.119C121.876 184.29 121.575 184.382 121.267 184.382Z"
        fill="#E3E3E3" />
    <path
        d="M61.3303 251.432C60.4813 251.428 59.6641 251.109 59.0393 250.536C58.4144 249.963 58.0271 249.177 57.9535 248.334C56.5988 232.99 49.8034 155.657 49.0574 140.039C48.2289 122.687 62.7123 95.2354 62.8587 94.9604L62.9589 94.7717L70.1175 95.6635V96.4936L76.9313 97.2928L90.1178 98.5654L93.893 144.575L95.5622 175.778L111.245 239.509C111.423 240.215 111.315 240.962 110.945 241.589C110.575 242.216 109.972 242.673 109.267 242.861L95.6178 246.572C94.9081 246.762 94.1522 246.667 93.5122 246.307C92.8723 245.947 92.3994 245.351 92.1953 244.647L79.3446 199.635C79.2824 199.417 79.1425 199.23 78.9512 199.108C78.7599 198.986 78.5304 198.937 78.306 198.972C78.0815 199.007 77.8776 199.122 77.7325 199.296C77.5874 199.471 77.5111 199.692 77.5181 199.918L78.8772 243.808C78.8841 244.259 78.7986 244.706 78.6259 245.123C78.4533 245.539 78.1971 245.916 77.8731 246.23C74.7444 249.16 66.4777 250.724 61.8287 251.396C61.6637 251.42 61.4971 251.432 61.3303 251.432Z"
        fill="#E3E3E3" />
    <path
        d="M102.343 58.0878C100.178 55.8365 85.9067 58.9303 82.7383 62.247L61.0474 97.6006L96.9207 104.255L104.846 59.3355L102.343 58.0878Z"
        fill="#FF4E16" />
    <path
        d="M92.941 147.909C92.1683 147.909 91.401 147.782 90.6701 147.532C88.586 146.819 86.0317 146.073 83.0783 145.316C70.143 141.999 65.576 131.38 69.5044 113.755L69.6037 113.307C73.2924 96.5878 80.2453 80.7556 90.0659 66.7133L91.5871 64.5344C93.4234 61.9057 95.994 59.873 98.9794 58.6891C101.965 57.5052 105.233 57.2224 108.379 57.8757C114.199 59.0727 117.324 60.8072 117.667 63.0315C118.341 67.3959 105.34 120.154 99.7197 142.635C99.343 144.142 98.4708 145.481 97.2422 146.437C96.0136 147.393 94.4994 147.911 92.941 147.909L92.941 147.909Z"
        fill="#E3E3E3" />
    <path
        d="M48.3798 141.136C48.0415 141.136 47.7053 141.084 47.3831 140.981L43.1905 139.644C42.7571 139.505 42.3574 139.278 42.017 138.977C41.6766 138.676 41.4029 138.307 41.2136 137.895C41.0242 137.482 40.9233 137.035 40.9173 136.581C40.9112 136.127 41.0002 135.677 41.1785 135.26L63.4255 83.1923C67.6882 73.2598 75.1412 65.0218 84.6122 59.7741H84.6124C84.7497 59.6988 84.9011 59.6523 85.0572 59.6378C85.2133 59.6232 85.3708 59.6408 85.5197 59.6895C85.6566 59.733 85.7829 59.8045 85.8903 59.8996C85.9978 59.9947 86.0841 60.1111 86.1437 60.2415C88.7601 65.9807 74.5192 93.1418 63.0764 114.966C57.217 126.141 52.1567 135.792 51.5807 138.544C51.4271 139.277 51.0249 139.935 50.442 140.407C49.859 140.879 49.1307 141.136 48.3798 141.136Z"
        fill="#E3E3E3" />
    <path
        d="M117.208 153C117.989 152.419 118.633 151.673 119.094 150.817C119.556 149.96 119.823 149.013 119.878 148.042C119.932 147.072 119.773 146.101 119.41 145.198C119.048 144.296 118.491 143.483 117.78 142.818L117.603 80.4246L103.298 82.8178L107.977 143.427C106.935 144.693 106.396 146.295 106.461 147.931C106.526 149.567 107.19 151.122 108.328 152.302C109.465 153.482 110.998 154.205 112.634 154.334C114.271 154.462 115.898 153.988 117.208 153Z"
        fill="#FFB8B8" />
    <path
        d="M105.56 95.904C104.851 95.9038 104.169 95.6349 103.651 95.1517C103.134 94.6685 102.82 94.0072 102.773 93.3019L101.109 68.1262C100.952 65.7039 101.765 63.3182 103.369 61.4926C104.973 59.6669 107.239 58.5504 109.668 58.3877C110.915 58.3058 112.165 58.4786 113.343 58.8956C114.521 59.3125 115.601 59.9648 116.517 60.8125C117.433 61.6602 118.166 62.6855 118.671 63.8255C119.176 64.9655 119.442 66.1963 119.453 67.4424L119.679 92.9609C119.685 93.698 119.397 94.4072 118.88 94.9337C118.363 95.4603 117.657 95.7615 116.918 95.7716L105.594 95.904L105.56 95.904Z"
        fill="#E3E3E3" />
    <path
        d="M95.3249 52.011C103.747 52.011 110.574 45.2034 110.574 36.8057C110.574 28.408 103.747 21.6003 95.3249 21.6003C86.9029 21.6003 80.0754 28.408 80.0754 36.8057C80.0754 45.2034 86.9029 52.011 95.3249 52.011Z"
        fill="#FFB8B8" />
    <path
        d="M108.004 47.4454C109.142 43.8364 110.186 39.581 107.935 36.5356C106.313 34.3412 103.401 33.4918 100.67 33.3702C97.9393 33.2486 95.2004 33.7102 92.4752 33.4942C89.75 33.2782 86.8699 32.2057 85.4856 29.8552C83.6905 26.8074 85.2108 22.6094 88.0967 20.5568C90.9825 18.5042 94.795 18.2176 98.3072 18.6957C102.752 19.2218 106.93 21.0854 110.285 24.0383C113.55 27.0427 115.678 31.3733 115.583 35.8021C115.488 40.2309 112.997 44.6412 109.027 46.6297"
        fill="#C7B86D" />
    <path
        d="M104.202 14.2205C100.551 13.0993 98.8675 8.28677 100.5 4.84332C102.133 1.39987 106.306 -0.403292 110.095 0.0763438C113.885 0.555979 117.224 2.98011 119.527 6.01871C121.83 9.05731 123.219 12.6794 124.377 16.3091C125.535 19.9387 126.498 23.6468 128.08 27.1139C130.589 32.4409 134.461 37.0154 139.305 40.378C144.15 43.7405 149.796 45.7725 155.678 46.2699C158.242 46.4551 160.902 46.3224 163.238 45.254C165.575 44.1855 167.534 42.0314 167.796 39.4818C169.126 48.5384 163.842 58.1633 155.474 61.9268C147.106 65.6903 136.373 63.2692 130.444 56.2808C124.651 49.4516 123.753 39.8098 123.893 30.866C123.931 28.4135 124.022 25.9146 123.342 23.5572C122.662 21.1998 121.054 18.9583 118.712 18.2096C116.822 17.6055 114.775 18.0409 112.837 18.4692C110.899 18.8975 108.842 19.3097 106.965 18.6641C105.089 18.0185 103.579 15.8911 104.335 14.0613"
        fill="#C7B86D" />
    <path
        d="M164.534 264H0.620882C0.456214 264 0.298261 263.935 0.181823 263.819C0.0653853 263.702 0 263.545 0 263.381C0 263.217 0.0653853 263.059 0.181823 262.943C0.298261 262.827 0.456214 262.762 0.620882 262.762H164.534C164.698 262.762 164.856 262.827 164.973 262.943C165.089 263.059 165.155 263.217 165.155 263.381C165.155 263.545 165.089 263.702 164.973 263.819C164.856 263.935 164.698 264 164.534 264Z"
        fill="#CCCCCC" />
</svg>